<?xml version="1.0" encoding="UTF-8" standalone="no"?>
<!-- Created with Inkscape (http://www.inkscape.org/) -->

<svg
   width="1000"
   height="3000"
   viewBox="0 0 264.58333 793.74999"
   version="1.1"
   id="svg5"
   xml:space="preserve"
   inkscape:export-filename="stu6.png"
   inkscape:export-xdpi="96"
   inkscape:export-ydpi="96"
   inkscape:version="1.2.1 (9c6d41e410, 2022-07-14)"
   sodipodi:docname="body.svg"
   xmlns:inkscape="http://www.inkscape.org/namespaces/inkscape"
   xmlns:sodipodi="http://sodipodi.sourceforge.net/DTD/sodipodi-0.dtd"
   xmlns="http://www.w3.org/2000/svg"
   xmlns:svg="http://www.w3.org/2000/svg"><sodipodi:namedview
     id="namedview7"
     pagecolor="#ffffff"
     bordercolor="#666666"
     borderopacity="1.0"
     inkscape:showpageshadow="2"
     inkscape:pageopacity="0.0"
     inkscape:pagecheckerboard="0"
     inkscape:deskcolor="#d1d1d1"
     inkscape:document-units="mm"
     showgrid="false"
     inkscape:zoom="0.41386281"
     inkscape:cx="147.39184"
     inkscape:cy="277.86985"
     inkscape:window-width="1600"
     inkscape:window-height="837"
     inkscape:window-x="-8"
     inkscape:window-y="-8"
     inkscape:window-maximized="1"
     inkscape:current-layer="layer1" /><defs
     id="defs2" /><g
     inkscape:label="Layer 1"
     inkscape:groupmode="layer"
     id="layer1"><rect
       style="fill:#0080ff;stroke:#060000;stroke-width:0;fill-opacity:1"
       id="main_body"
       width="270.42477"
       height="800.40613"
       x="-3.1965098"
       y="-1.9179059" /><path
       style="fill:#55d400;fill-opacity:1;stroke:#060000;stroke-width:0"
       id="c1"
       sodipodi:type="arc"
       sodipodi:cx="35.800915"
       sodipodi:cy="32.604401"
       sodipodi:rx="70.37677"
       sodipodi:ry="73.955254"
       sodipodi:start="0"
       sodipodi:end="6.2830237"
       sodipodi:open="true"
       sodipodi:arc-type="arc"
       d="M 106.17768,32.604401 A 70.37677,73.955254 0 0 1 35.803758,106.55965 70.37677,73.955254 0 0 1 -34.575855,32.610376 70.37677,73.955254 0 0 1 35.792385,-41.350852 70.37677,73.955254 0 0 1 106.17768,32.592449" /><path
       style="fill:#55d400;fill-opacity:1;stroke:#060000;stroke-width:0"
       id="c2"
       sodipodi:type="arc"
       sodipodi:cx="209.05176"
       sodipodi:cy="206.49454"
       sodipodi:rx="31.606195"
       sodipodi:ry="33.213291"
       sodipodi:start="0"
       sodipodi:end="6.2830237"
       sodipodi:open="true"
       sodipodi:arc-type="arc"
       d="m 240.65795,206.49454 a 31.606195,33.213291 0 0 1 -31.60492,33.21329 31.606195,33.213291 0 0 1 -31.60747,-33.21061 31.606195,33.213291 0 0 1 31.60237,-33.21597 31.606195,33.213291 0 0 1 31.61002,33.20792" /><path
       style="fill:#55d400;fill-opacity:1;stroke:#060000;stroke-width:0"
       id="c3"
       sodipodi:type="arc"
       sodipodi:cx="5.1144128"
       sodipodi:cy="283.85007"
       sodipodi:rx="31.606195"
       sodipodi:ry="33.213291"
       sodipodi:start="0"
       sodipodi:end="6.2830237"
       sodipodi:open="true"
       sodipodi:arc-type="arc"
       d="M 36.720608,283.85007 A 31.606195,33.213291 0 0 1 5.1156897,317.06336 31.606195,33.213291 0 0 1 -26.491783,283.85275 31.606195,33.213291 0 0 1 5.1105819,250.63678 31.606195,33.213291 0 0 1 36.720608,283.8447" /><path
       style="fill:#55d400;fill-opacity:1;stroke:#060000;stroke-width:0"
       id="c4"
       sodipodi:type="arc"
       sodipodi:cx="221.1985"
       sodipodi:cy="420.66071"
       sodipodi:rx="65.674805"
       sodipodi:ry="69.014206"
       sodipodi:start="0"
       sodipodi:end="6.2830237"
       sodipodi:open="true"
       sodipodi:arc-type="arc"
       d="m 286.87331,420.66071 a 65.674805,69.014206 0 0 1 -65.67216,69.0142 65.674805,69.014206 0 0 1 -65.67745,-69.00863 65.674805,69.014206 0 0 1 65.66684,-69.01978 65.674805,69.014206 0 0 1 65.68277,69.00305" /><path
       style="fill:#55d400;fill-opacity:1;stroke:#060000;stroke-width:0"
       id="c5"
       sodipodi:type="arc"
       sodipodi:cx="34.522312"
       sodipodi:cy="606.05829"
       sodipodi:rx="37.545517"
       sodipodi:ry="39.454613"
       sodipodi:start="0"
       sodipodi:end="6.2830237"
       sodipodi:open="true"
       sodipodi:arc-type="arc"
       d="m 72.067829,606.05829 a 37.545517,39.454613 0 0 1 -37.544,39.45461 37.545517,39.454613 0 0 1 -37.5470337,-39.45142 37.545517,39.454613 0 0 1 37.5409657,-39.4578 37.545517,39.454613 0 0 1 37.550068,39.44823" /></g></svg>
