<?xml version="1.0" encoding="UTF-8" standalone="no"?>
<!-- Uploaded to: SVG Repo, www.svgrepo.com, Generator: SVG Repo Mixer Tools -->

<svg
   fill="#000000"
   width="800px"
   height="800px"
   viewBox="0 0 24 24"
   version="1.1"
   id="svg859"
   sodipodi:docname="facebook-circle-svgrepo-com.svg"
   inkscape:version="1.2.1 (9c6d41e410, 2022-07-14)"
   xmlns:inkscape="http://www.inkscape.org/namespaces/inkscape"
   xmlns:sodipodi="http://sodipodi.sourceforge.net/DTD/sodipodi-0.dtd"
   xmlns:xlink="http://www.w3.org/1999/xlink"
   xmlns="http://www.w3.org/2000/svg"
   xmlns:svg="http://www.w3.org/2000/svg">
  <defs
     id="defs863">
    <linearGradient
       inkscape:collect="always"
       id="linearGradient1563">
      <stop
         style="stop-color:#5699ff;stop-opacity:1;"
         offset="0"
         id="stop1573" />
      <stop
         style="stop-color:#005fef;stop-opacity:1;"
         offset="0.75403953"
         id="stop1561" />
      <stop
         style="stop-color:#004197;stop-opacity:1;"
         offset="1"
         id="stop1559" />
    </linearGradient>
    <radialGradient
       inkscape:collect="always"
       xlink:href="#linearGradient1563"
       id="radialGradient1565"
       cx="12.001"
       cy="11.941"
       fx="12.001"
       fy="11.941"
       r="9.999"
       gradientTransform="matrix(1,0,0,0.9939994,0,0.07165317)"
       gradientUnits="userSpaceOnUse" />
  </defs>
  <sodipodi:namedview
     id="namedview861"
     pagecolor="#ffffff"
     bordercolor="#666666"
     borderopacity="1.0"
     inkscape:showpageshadow="2"
     inkscape:pageopacity="0.0"
     inkscape:pagecheckerboard="0"
     inkscape:deskcolor="#d1d1d1"
     showgrid="false"
     inkscape:zoom="0.82125"
     inkscape:cx="179.60426"
     inkscape:cy="400.60883"
     inkscape:window-width="1600"
     inkscape:window-height="837"
     inkscape:window-x="-8"
     inkscape:window-y="-8"
     inkscape:window-maximized="1"
     inkscape:current-layer="svg859" />
  <path
     d="M12.001 2.002c-5.522 0-9.999 4.477-9.999 9.999 0 4.99 3.656 9.126 8.437 9.879v-6.988h-2.54v-2.891h2.54V9.798c0-2.508 1.493-3.891 3.776-3.891 1.094 0 2.24.195 2.24.195v2.459h-1.264c-1.24 0-1.628.772-1.628 1.563v1.875h2.771l-.443 2.891h-2.328v6.988C18.344 21.129 22 16.992 22 12.001c0-5.522-4.477-9.999-9.999-9.999z"
     id="path857"
     style="fill:url(#radialGradient1565);fill-opacity:1" />
</svg>
