<?xml version="1.0" encoding="UTF-8" standalone="no"?>
<!-- Uploaded to: SVG Repo, www.svgrepo.com, Generator: SVG Repo Mixer Tools -->

<svg
   width="800px"
   height="800px"
   viewBox="0 0 24 24"
   fill="none"
   version="1.1"
   id="svg728"
   sodipodi:docname="insta-svgrepo-com.svg"
   inkscape:version="1.2.1 (9c6d41e410, 2022-07-14)"
   xmlns:inkscape="http://www.inkscape.org/namespaces/inkscape"
   xmlns:sodipodi="http://sodipodi.sourceforge.net/DTD/sodipodi-0.dtd"
   xmlns:xlink="http://www.w3.org/1999/xlink"
   xmlns="http://www.w3.org/2000/svg"
   xmlns:svg="http://www.w3.org/2000/svg">
  <defs
     id="defs732">
    <linearGradient
       inkscape:collect="always"
       id="linearGradient2178">
      <stop
         style="stop-color:#ff9100;stop-opacity:1;"
         offset="0.37300178"
         id="stop2174" />
      <stop
         style="stop-color:#e200b9;stop-opacity:1;"
         offset="1"
         id="stop2176" />
    </linearGradient>
    <radialGradient
       inkscape:collect="always"
       xlink:href="#linearGradient2178"
       id="radialGradient2180"
       cx="5.0367327"
       cy="19.929596"
       fx="5.0367327"
       fy="19.929596"
       r="9.9360652"
       gradientTransform="matrix(1.683848,0.0129347,-0.01242612,1.6176401,-3.0462482,-11.409081)"
       gradientUnits="userSpaceOnUse" />
  </defs>
  <sodipodi:namedview
     id="namedview730"
     pagecolor="#ffffff"
     bordercolor="#666666"
     borderopacity="1.0"
     inkscape:showpageshadow="2"
     inkscape:pageopacity="0.0"
     inkscape:pagecheckerboard="0"
     inkscape:deskcolor="#d1d1d1"
     showgrid="false"
     inkscape:zoom="0.410625"
     inkscape:cx="685.54033"
     inkscape:cy="258.14307"
     inkscape:window-width="1600"
     inkscape:window-height="837"
     inkscape:window-x="-8"
     inkscape:window-y="-8"
     inkscape:window-maximized="1"
     inkscape:current-layer="svg728" />
  <path
     id="rect1783"
     style="fill:url(#radialGradient2180);stroke:#fdff0f;stroke-width:0;fill-opacity:1"
     d="M 7.8173438 1.8995508 C 4.7817363 1.8995508 2.3378906 4.3433965 2.3378906 7.3790039 L 2.3378906 15.707754 C 2.3378906 18.743361 4.7817363 21.187207 7.8173438 21.187207 L 16.730566 21.187207 C 19.766174 21.187207 22.21002 18.743361 22.21002 15.707754 L 22.21002 7.3790039 C 22.21002 4.3433965 19.766174 1.8995508 16.730566 1.8995508 L 7.8173438 1.8995508 z M 11.60168 5.0854102 L 12.946289 5.0854102 C 14.214813 5.0854102 15.174214 5.0833395 15.952734 5.1880078 C 16.731255 5.2926763 17.355409 5.5206724 17.826035 5.9913281 C 18.296692 6.4619755 18.524686 7.0861127 18.629355 7.8646289 C 18.734038 8.643145 18.731895 9.602538 18.731895 10.871074 L 18.731895 12.215684 C 18.731895 13.484205 18.734027 14.443608 18.629355 15.222129 C 18.524686 16.00065 18.296703 16.624802 17.826035 17.09543 C 17.35541 17.566095 16.731257 17.795661 15.952734 17.900332 C 15.174214 18.005004 14.214813 18.001289 12.946289 18.001289 L 11.60168 18.001289 C 10.333142 18.001289 9.3737506 18.005004 8.5952344 17.900332 C 7.8167181 17.795661 7.1925801 17.566084 6.7219336 17.09543 C 6.2512774 16.624801 6.0216994 16.000648 5.9170312 15.222129 C 5.8123916 14.443609 5.8160156 13.484205 5.8160156 12.215684 L 5.8160156 10.871074 C 5.8160156 9.602538 5.8123625 8.6431439 5.9170312 7.8646289 C 6.0216994 7.0861138 6.2512888 6.4619765 6.7219336 5.9913281 C 7.1925817 5.5206839 7.8167189 5.2926763 8.5952344 5.1880078 C 9.3737498 5.0833412 10.333142 5.0854102 11.60168 5.0854102 z M 11.60168 5.8918945 C 10.333142 5.8918945 9.3895814 5.8957913 8.7025195 5.9881641 C 8.0154585 6.0805369 7.6107458 6.2450965 7.2932227 6.5626172 C 6.9757017 6.8801406 6.8095606 7.2848527 6.7171875 7.9719141 C 6.6248402 8.6589751 6.6225 9.602538 6.6225 10.871074 L 6.6225 12.215684 C 6.6225 13.484205 6.6248152 14.427719 6.7171875 15.114785 C 6.8095606 15.801851 6.9757131 16.20665 7.2932227 16.524141 C 7.6107466 16.841669 8.0154601 17.007801 8.7025195 17.100176 C 9.3895798 17.192548 10.333142 17.194863 11.60168 17.194863 L 12.946289 17.194863 C 14.214813 17.194863 15.158324 17.192551 15.845391 17.100176 C 16.532455 17.007801 16.937254 16.841657 17.254746 16.524141 C 17.572265 16.206649 17.736824 15.80185 17.829199 15.114785 C 17.92159 14.427721 17.925469 13.484205 17.925469 12.215684 L 17.925469 10.871074 C 17.925469 9.602538 17.921575 8.658974 17.829199 7.9719141 C 17.736824 7.2848539 17.572276 6.8801416 17.254746 6.5626172 C 16.937255 6.2451081 16.532457 6.0805369 15.845391 5.9881641 C 15.158323 5.8957897 14.214813 5.8918945 12.946289 5.8918945 L 11.60168 5.8918945 z M 15.301172 7.5070898 A 1.0091178 1.0091178 0 0 1 16.310273 8.51625 A 1.0091178 1.0091178 0 0 1 15.301172 9.5253516 A 1.0091178 1.0091178 0 0 1 14.292012 8.51625 A 1.0091178 1.0091178 0 0 1 15.301172 7.5070898 z M 12.273809 9.2562305 A 2.2873337 2.2873337 0 0 1 14.561133 11.543555 A 2.2873337 2.2873337 0 0 1 12.273809 13.830937 A 2.2873337 2.2873337 0 0 1 9.9864844 11.543555 A 2.2873337 2.2873337 0 0 1 12.273809 9.2562305 z " />
  <g
     id="g1727"
     transform="matrix(0.80803199,0,0,0.80803199,-14.837706,11.705925)" />
</svg>
