<?xml version="1.0" encoding="UTF-8" standalone="no"?>
<!-- Uploaded to: SVG Repo, www.svgrepo.com, Generator: SVG Repo Mixer Tools -->

<svg
   fill="#000000"
   version="1.1"
   id="Capa_1"
   width="800px"
   height="800px"
   viewBox="0 0 32 32"
   xml:space="preserve"
   sodipodi:docname="linkedin-logo-svgrepo-com.svg"
   inkscape:version="1.2.1 (9c6d41e410, 2022-07-14)"
   xmlns:inkscape="http://www.inkscape.org/namespaces/inkscape"
   xmlns:sodipodi="http://sodipodi.sourceforge.net/DTD/sodipodi-0.dtd"
   xmlns:xlink="http://www.w3.org/1999/xlink"
   xmlns="http://www.w3.org/2000/svg"
   xmlns:svg="http://www.w3.org/2000/svg"><defs
   id="defs2198"><linearGradient
     inkscape:collect="always"
     id="linearGradient4144"><stop
       style="stop-color:#6fa9ff;stop-opacity:1;"
       offset="0.1400359"
       id="stop4150" /><stop
       style="stop-color:#0062fb;stop-opacity:1;"
       offset="0.50987428"
       id="stop4142" /><stop
       style="stop-color:#003380;stop-opacity:1;"
       offset="1"
       id="stop4140" /></linearGradient><radialGradient
     inkscape:collect="always"
     xlink:href="#linearGradient4144"
     id="radialGradient4146"
     cx="16"
     cy="16"
     fx="16"
     fy="16"
     r="16"
     gradientUnits="userSpaceOnUse" /></defs><sodipodi:namedview
   id="namedview2196"
   pagecolor="#ffffff"
   bordercolor="#666666"
   borderopacity="1.0"
   inkscape:showpageshadow="2"
   inkscape:pageopacity="0.0"
   inkscape:pagecheckerboard="0"
   inkscape:deskcolor="#d1d1d1"
   showgrid="false"
   inkscape:zoom="0.410625"
   inkscape:cx="-283.71385"
   inkscape:cy="499.23896"
   inkscape:window-width="1600"
   inkscape:window-height="837"
   inkscape:window-x="-8"
   inkscape:window-y="-8"
   inkscape:window-maximized="1"
   inkscape:current-layer="Capa_1" />
<g
   id="g2193"
   style="fill:url(#radialGradient4146);fill-opacity:1">
	<path
   d="M17.303,14.365c0.012-0.015,0.023-0.031,0.031-0.048v0.048H17.303z M32,0v32H0V0H32L32,0z M9.925,12.285H5.153v14.354   h4.772V12.285z M10.237,7.847c-0.03-1.41-1.035-2.482-2.668-2.482c-1.631,0-2.698,1.072-2.698,2.482   c0,1.375,1.035,2.479,2.636,2.479h0.031C9.202,10.326,10.237,9.222,10.237,7.847z M27.129,18.408c0-4.408-2.355-6.459-5.494-6.459   c-2.531,0-3.664,1.391-4.301,2.368v-2.032h-4.77c0.061,1.346,0,14.354,0,14.354h4.77v-8.016c0-0.434,0.031-0.855,0.157-1.164   c0.346-0.854,1.132-1.746,2.448-1.746c1.729,0,2.418,1.314,2.418,3.246v7.68h4.771L27.129,18.408L27.129,18.408z"
   id="path2191"
   style="fill:url(#radialGradient4146);fill-opacity:1" />
</g>
</svg>
