<?xml version="1.0" encoding="UTF-8" standalone="no"?>
<!-- Uploaded to: SVG Repo, www.svgrepo.com, Generator: SVG Repo Mixer Tools -->

<svg
   width="800px"
   height="800px"
   viewBox="0 0 24 24"
   fill="none"
   version="1.1"
   id="svg2324"
   sodipodi:docname="pintrest-svgrepo-com.svg"
   inkscape:version="1.2.1 (9c6d41e410, 2022-07-14)"
   xmlns:inkscape="http://www.inkscape.org/namespaces/inkscape"
   xmlns:sodipodi="http://sodipodi.sourceforge.net/DTD/sodipodi-0.dtd"
   xmlns:xlink="http://www.w3.org/1999/xlink"
   xmlns="http://www.w3.org/2000/svg"
   xmlns:svg="http://www.w3.org/2000/svg">
  <defs
     id="defs2328">
    <linearGradient
       inkscape:collect="always"
       id="linearGradient3609">
      <stop
         style="stop-color:#ffd4d4;stop-opacity:1;"
         offset="0"
         id="stop3619" />
      <stop
         style="stop-color:#ff7b7b;stop-opacity:1;"
         offset="0.23339318"
         id="stop3613" />
      <stop
         style="stop-color:#ff1414;stop-opacity:1;"
         offset="0.47935367"
         id="stop3617" />
      <stop
         style="stop-color:#ff0000;stop-opacity:1;"
         offset="0.73070014"
         id="stop3605" />
      <stop
         style="stop-color:#760000;stop-opacity:1;"
         offset="1"
         id="stop3607" />
    </linearGradient>
    <radialGradient
       inkscape:collect="always"
       xlink:href="#linearGradient3609"
       id="radialGradient3611"
       cx="12.088623"
       cy="11.830312"
       fx="12.088623"
       fy="11.830312"
       r="11.17544"
       gradientTransform="matrix(1,0,0,0.97539161,0,0.29112497)"
       gradientUnits="userSpaceOnUse" />
  </defs>
  <sodipodi:namedview
     id="namedview2326"
     pagecolor="#ffffff"
     bordercolor="#666666"
     borderopacity="1.0"
     inkscape:showpageshadow="2"
     inkscape:pageopacity="0.0"
     inkscape:pagecheckerboard="0"
     inkscape:deskcolor="#d1d1d1"
     showgrid="false"
     inkscape:zoom="0.58071144"
     inkscape:cx="55.965834"
     inkscape:cy="421.89629"
     inkscape:window-width="1600"
     inkscape:window-height="837"
     inkscape:window-x="-8"
     inkscape:window-y="-8"
     inkscape:window-maximized="1"
     inkscape:current-layer="svg2324" />
  <path
     id="rect2499"
     style="fill:url(#radialGradient3611);stroke:#fdff0f;stroke-width:0;fill-opacity:1"
     d="M 11.813613 0.92988281 C 5.7747855 0.92988281 0.91318359 5.7914847 0.91318359 11.830312 C 0.91318359 17.86914 5.7747855 22.730742 11.813613 22.730742 L 12.363633 22.730742 C 18.402461 22.730742 23.264062 17.86914 23.264062 11.830312 C 23.264062 5.7914847 18.402461 0.92988281 12.363633 0.92988281 L 11.813613 0.92988281 z M 12.088594 3.0867773 C 16.917518 3.0867773 20.832129 7.001397 20.832129 11.830312 C 20.832129 16.659237 16.917518 20.573848 12.088594 20.573848 C 7.2596789 20.573848 3.3450586 16.659237 3.3450586 11.830312 C 3.3450586 7.001397 7.2596789 3.0867773 12.088594 3.0867773 z M 12.088594 4.7522461 C 8.1794728 4.7522461 5.0105273 7.9211909 5.0105273 11.830312 C 5.0105273 14.284911 6.2599527 16.447641 8.1575391 17.717285 C 8.745895 16.132958 9.32254 14.543311 9.8542383 12.939082 C 9.6477079 12.351018 9.5904492 11.781507 9.5904492 11.413945 C 9.5904492 10.756016 9.9163294 10.111822 10.467129 9.8364258 C 10.763494 9.6882191 11.248255 9.6123371 11.658867 9.9545508 C 12.211292 10.414876 12.114512 11.154669 11.954297 11.768965 C 11.876604 12.066661 11.766959 12.432965 11.638887 12.83625 C 11.873463 13.208225 12.240249 13.495723 12.921328 13.495723 C 13.808171 13.495723 14.767048 12.928077 15.019277 11.667012 C 15.323302 10.146987 14.109764 8.4994336 12.088594 8.4994336 C 11.27045 8.4994336 10.419706 8.8355785 9.7761914 9.393457 C 9.1562005 9.9309427 8.2940553 11.276368 8.9484375 12.093047 C 9.2552934 12.419389 9.2492119 12.932842 8.9302148 13.251855 C 8.6085864 13.573417 8.0725047 13.572279 7.7514258 13.250684 C 7.2871446 12.777784 7.0923047 12.058968 7.0923047 11.413945 C 7.0923047 10.08732 7.762518 8.9350719 8.685293 8.1350977 C 9.606186 7.3367472 10.837187 6.8340234 12.088594 6.8340234 C 15.063724 6.8340234 17.181094 9.3500543 16.652402 11.993613 C 16.231297 14.09922 14.532635 15.161191 12.921328 15.161191 C 12.144237 15.161191 11.527369 14.940342 11.049141 14.599512 C 10.599307 15.897883 10.130241 17.189586 9.6516211 18.477715 C 10.411408 18.756343 11.232228 18.908437 12.088594 18.908437 C 15.997699 18.908437 19.166719 15.739418 19.166719 11.830312 C 19.166719 7.9211909 15.997699 4.7522461 12.088594 4.7522461 z " />
</svg>
