<?xml version="1.0" encoding="UTF-8" standalone="no"?>
<!-- Uploaded to: SVG Repo, www.svgrepo.com, Generator: SVG Repo Mixer Tools -->

<svg
   fill="#000000"
   version="1.1"
   id="Capa_1"
   width="800px"
   height="800px"
   viewBox="0 0 30.667 30.667"
   xml:space="preserve"
   sodipodi:docname="whatsapp-logo-variant-svgrepo-com.svg"
   inkscape:version="1.2.1 (9c6d41e410, 2022-07-14)"
   xmlns:inkscape="http://www.inkscape.org/namespaces/inkscape"
   xmlns:sodipodi="http://sodipodi.sourceforge.net/DTD/sodipodi-0.dtd"
   xmlns:xlink="http://www.w3.org/1999/xlink"
   xmlns="http://www.w3.org/2000/svg"
   xmlns:svg="http://www.w3.org/2000/svg"><defs
   id="defs2514"><linearGradient
     inkscape:collect="always"
     id="linearGradient3078"><stop
       style="stop-color:#50ff50;stop-opacity:1;"
       offset="0"
       id="stop3074" /><stop
       style="stop-color:#00d200;stop-opacity:1;"
       offset="0.58614564"
       id="stop3086" /><stop
       style="stop-color:#00b100;stop-opacity:1;"
       offset="1"
       id="stop3076" /></linearGradient><radialGradient
     inkscape:collect="always"
     xlink:href="#linearGradient3078"
     id="radialGradient3080"
     cx="15.31014"
     cy="15.496867"
     fx="15.31014"
     fy="15.496867"
     r="13.256365"
     gradientUnits="userSpaceOnUse" /></defs><sodipodi:namedview
   id="namedview2512"
   pagecolor="#ffffff"
   bordercolor="#666666"
   borderopacity="1.0"
   inkscape:showpageshadow="2"
   inkscape:pageopacity="0.0"
   inkscape:pagecheckerboard="0"
   inkscape:deskcolor="#d1d1d1"
   showgrid="false"
   inkscape:zoom="0.410625"
   inkscape:cx="-52.359208"
   inkscape:cy="277.62557"
   inkscape:window-width="1600"
   inkscape:window-height="837"
   inkscape:window-x="-8"
   inkscape:window-y="-8"
   inkscape:window-maximized="1"
   inkscape:current-layer="Capa_1" />
<path
   id="rect2685"
   style="fill:url(#radialGradient3080);stroke:#fdff0f;stroke-width:0;fill-opacity:1"
   d="M 6.3621297 2.2405029 C 3.9753244 2.2405029 2.0537756 4.1620517 2.0537756 6.548857 L 2.0537756 24.444878 C 2.0537756 26.831684 3.9753244 28.753232 6.3621297 28.753232 L 24.258226 28.753232 C 26.645031 28.753232 28.566505 26.831684 28.566505 24.444878 L 28.566505 6.548857 C 28.566505 4.1620517 26.645031 2.2405029 24.258226 2.2405029 L 6.3621297 2.2405029 z M 15.504579 4.8311007 C 21.288371 4.8324919 25.975907 9.4838881 25.975907 15.222467 C 25.975907 20.961046 21.287644 25.613159 15.503157 25.613159 C 13.667507 25.613159 11.943202 25.143599 10.442128 24.321417 L 4.6443734 26.162635 L 6.5343321 20.586122 C 5.5813802 19.021055 5.0325026 17.183344 5.0325026 15.221793 C 5.0331982 9.4832143 9.7200919 4.8311007 15.504579 4.8311007 z M 15.502483 6.4879872 C 10.647993 6.4879872 6.6991223 10.406939 6.6991223 15.224563 C 6.6991223 17.136032 7.3224121 18.905626 8.3762239 20.345488 L 7.2771982 23.588958 L 10.659103 22.514265 C 12.050274 23.426873 13.714829 23.958294 15.502483 23.958294 C 20.356973 23.958294 24.307191 20.040091 24.307191 15.222467 C 24.308582 10.40693 20.357668 6.4879872 15.502483 6.4879872 z M 11.977949 10.483457 C 12.149063 10.483457 12.320149 10.504271 12.469699 10.504271 C 12.619946 10.504271 12.833557 10.420143 13.047101 10.929312 C 13.262037 11.439176 13.77464 12.691208 13.838633 12.819195 C 13.901932 12.947879 13.944362 13.096054 13.860196 13.266472 C 13.774639 13.436891 13.732223 13.541931 13.60354 13.69009 C 13.474857 13.839641 13.332952 14.022596 13.218181 14.137367 C 13.090889 14.263964 12.955232 14.401636 13.106174 14.656221 C 13.25503 14.9115 13.770451 15.744138 14.533508 16.420247 C 15.514283 17.287642 16.342067 17.554759 16.598738 17.684138 C 16.855409 17.810038 17.004952 17.788445 17.154503 17.618027 C 17.305445 17.446913 17.797897 16.873784 17.966924 16.618504 C 18.138038 16.363224 18.309175 16.406341 18.545674 16.491898 C 18.780086 16.575368 20.043938 17.191006 20.299218 17.318994 C 20.555193 17.446981 20.726332 17.510972 20.791717 17.616005 C 20.856406 17.72243 20.856441 18.233669 20.6422 18.830481 C 20.429351 19.424511 19.381751 19.996965 18.910144 20.040091 C 18.439928 20.083217 18.439975 20.423322 15.829443 19.40429 C 13.220302 18.384562 11.573126 15.728187 11.443747 15.55916 C 11.315064 15.389437 10.396158 14.179749 10.396158 12.924913 C 10.396158 11.671468 11.059819 11.055889 11.294231 10.800609 C 11.528643 10.545329 11.806835 10.483457 11.977949 10.483457 z " /><g
   id="g2509"
   transform="matrix(0.695586,0,0,0.695586,4.6443941,4.8311031)">
	
</g>
</svg>
